<svg xmlns="http://www.w3.org/2000/svg" width="30" height="30" viewBox="0 0 30 30">
  <metadata><?xpacket begin="﻿" id="W5M0MpCehiHzreSzNTczkc9d"?>
<x:xmpmeta xmlns:x="adobe:ns:meta/" x:xmptk="Adobe XMP Core 5.6-c142 79.160924, 2017/07/13-01:06:39        ">
   <rdf:RDF xmlns:rdf="http://www.w3.org/1999/02/22-rdf-syntax-ns#">
      <rdf:Description rdf:about=""/>
   </rdf:RDF>
</x:xmpmeta>
                                                                                                    
                                                                                                    
                                                                                                    
                                                                                                    
                                                                                                    
                                                                                                    
                                                                                                    
                                                                                                    
                                                                                                    
                                                                                                    
                                                                                                    
                                                                                                    
                                                                                                    
                                                                                                    
                                                                                                    
                                                                                                    
                                                                                                    
                                                                                                    
                                                                                                    
                                                                                                    
                           
<?xpacket end="w"?></metadata>
<defs>
    <style>
      .cls-1 {
        fill: #666;
        fill-rule: evenodd;
      }
    </style>
  </defs>
  <path class="cls-1" d="M966.306,410.981l-4.76-4.758a2.348,2.348,0,0,0-2.848-.363l-1.463-1.46a11.609,11.609,0,1,0-.836.838l1.461,1.46a2.343,2.343,0,0,0,.363,2.85l4.758,4.759A2.351,2.351,0,0,0,966.306,410.981Zm-11.944-8.618a8.134,8.134,0,1,1,0-11.5A8.141,8.141,0,0,1,954.362,402.363Zm4.464,6.008a1.163,1.163,0,0,1,1.544-1.544Zm6.643,5.1a1.171,1.171,0,0,1-1.233.267l1.5-1.5A1.167,1.167,0,0,1,965.469,413.471Z" transform="translate(-937 -385)"/>
</svg>
