<svg xmlns="http://www.w3.org/2000/svg" width="33.812" height="28.781" viewBox="0 0 33.812 28.781">
  <metadata><?xpacket begin="﻿" id="W5M0MpCehiHzreSzNTczkc9d"?>
<x:xmpmeta xmlns:x="adobe:ns:meta/" x:xmptk="Adobe XMP Core 5.6-c142 79.160924, 2017/07/13-01:06:39        ">
   <rdf:RDF xmlns:rdf="http://www.w3.org/1999/02/22-rdf-syntax-ns#">
      <rdf:Description rdf:about=""/>
   </rdf:RDF>
</x:xmpmeta>
                                                                                                    
                                                                                                    
                                                                                                    
                                                                                                    
                                                                                                    
                                                                                                    
                                                                                                    
                                                                                                    
                                                                                                    
                                                                                                    
                                                                                                    
                                                                                                    
                                                                                                    
                                                                                                    
                                                                                                    
                                                                                                    
                                                                                                    
                                                                                                    
                                                                                                    
                                                                                                    
                           
<?xpacket end="w"?></metadata>
<defs>
    <style>
      .cls-1 {
        fill: #152b3b;
        fill-rule: evenodd;
      }
    </style>
  </defs>
  <path class="cls-1" d="M238.069,267.658a1.98,1.98,0,0,1-1.381-.563l-12.876-12.5a2.047,2.047,0,0,1-.062-2.861,1.976,1.976,0,0,1,2.821-.063l12.878,12.5a2.046,2.046,0,0,1,.063,2.862A1.985,1.985,0,0,1,238.069,267.658Zm0-26.736-12.878,12.216m0,2.024a1.983,1.983,0,0,1-1.457-.642,2.041,2.041,0,0,1,.095-2.859l12.877-12.216a1.974,1.974,0,0,1,2.82.095,2.042,2.042,0,0,1-.094,2.86l-12.878,12.215A1.965,1.965,0,0,1,225.191,255.162Zm29.8,0h-29.8a2.024,2.024,0,0,1,0-4.047h29.8A2.024,2.024,0,0,1,254.992,255.162Z" transform="translate(-223.188 -238.875)"/>
</svg>
